<svg id="egf9EQ7aMVD1" xmlns="http://www.w3.org/2000/svg" xmlns:xlink="http://www.w3.org/1999/xlink"
    viewBox="0 0 300 300" shape-rendering="geometricPrecision" text-rendering="geometricPrecision">

    <path
        d="M0,150C0,67.15729,67.15729,0,150,0s150,67.15729,150,150c0,27.85738-7.59391,53.94111-20.82455,76.29402l-43.05842-25.43145C244.93742,185.96065,250,168.57154,250,150c0-55.22848-44.77152-100-100-100s-100,44.77153-100,100s44.77152,100,100,100c18.57154,0,35.96066-5.06258,50.86257-13.88297l25.43145,43.05842C203.94111,292.40609,177.85738,300,150,300C67.15729,300,0,232.84271,0,150Zm75,0c0-41.42136,33.57864-75,75-75s75,33.57864,75,75c0,13.92862-3.79691,26.97043-10.41218,38.14685l-32.29381-19.07359c-3.22111,5.44209-7.77865,9.99964-13.22074,13.22074l19.07359,32.29381c-11.17642,6.61526-24.21823,10.41218-38.14685,10.41218-41.42136,0-75-33.57864-75-75L75,150Z" />
    <style>
        path {
            fill: #252525;
            stroke-width: 0
        }

        @media (prefers-color-scheme: dark) {
            path {
                fill: #d9d9d9;
            }
        }
    </style>
</svg>